<?xml version="1.0" encoding="UTF-8"?>
<svg width="117px" height="53px" viewBox="0 0 117 53" version="1.1" xmlns="http://www.w3.org/2000/svg" xmlns:xlink="http://www.w3.org/1999/xlink">
    <!-- Generator: Sketch 52.1 (67048) - http://www.bohemiancoding.com/sketch -->
    <title>Group 2</title>
    <desc>Created with Sketch.</desc>
    <g id="Page-1" stroke="none" stroke-width="1" fill="none" fill-rule="evenodd">
        <g id="Group-2" fill="#231F20">
            <path d="M41.38,27.96 C41.38,33.39 35.38,32.57 35.38,32.57 L11.59,32.57 C7.87,32.57 7.02,29.64 7.02,26.97 L7.02,23.03 L0.78,28.03 L0.78,29.43 C0.78,36.2 4.16,38.65 11.71,38.65 L38,38.65 C43.08,38.65 47.61,35.18 47.61,30.21 L47.61,17.21 L41.38,23.09 L41.38,27.96 Z" id="Path"></path>
            <polygon id="Path" points="50.43 38.6 56.75 38.6 56.75 9.48 50.43 15.43"></polygon>
            <path d="M63.85,34.99 C63.85,38.99 61.67,41.19 57.51,41.19 L61.58,47.3 C63.89,47.3 70.2,45.65 70.2,34.46 L70.2,16.66 L63.85,23.02 L63.85,34.99 Z" id="Path"></path>
            <path d="M80.45,38.6 L90.83,38.6 C93.2301944,38.7227005 95.5460523,37.6983788 97.07,35.84 C98.4190818,34.1394014 99.1080698,32.0085109 99.01,29.84 L99.01,18.15 L92.68,24.01 L92.68,28.09 C92.68,31.0433333 91.6133333,32.52 89.48,32.52 L79.08,32.52 C79.08,32.52 79.15,29.52 79.15,27.82 L79.15,9.02 L72.82,14.97 L72.82,31.15 C72.82,36.1166667 75.3633333,38.6 80.45,38.6 Z" id="Path"></path>
            <polygon id="Path" points="101.61 38.6 107.94 38.6 107.94 9.15 101.61 14.76"></polygon>
            <path d="M104.53,0.66 C95.16,0.66 92.68,6.97 92.68,9.28 L98.98,13.28 C98.98,9.12 100.03,7.04 103.98,7.04 L110.19,7.04 L116.55,0.69 L104.53,0.66 Z" id="Path"></path>
            <polygon id="Path" points="22.21 16.67 6.97 16.67 6.97 22.99 28.16 22.99"></polygon>
            <path d="M92.17,49.15 L97.48,44.15 C97.42,44.07 97.38,43.99 97.32,43.92 C95.7960523,42.0616212 93.4801944,41.0372995 91.08,41.16 L73.68,41.16 L80.11,47.16 L89,47.16 C90.3267307,47.2398242 91.5214663,47.9898318 92.17,49.15 Z" id="Path"></path>
            <path d="M84.72,48.16 L88.72,48.16 C89.8352379,48.2285192 90.8434563,48.8469431 91.41,49.81 L89,52.27 L84.72,48.16 Z" id="Path"></path>
        </g>
    </g>
</svg>